<svg width="260" height="260" viewBox="0 0 260 260" fill="none" xmlns="http://www.w3.org/2000/svg">
<path d="M250.333 129.667C250.333 196.308 196.309 250.333 129.667 250.333C63.0253 250.333 9 196.308 9 129.667C9 63.024 63.0253 8.99999 129.667 8.99999C196.309 8.99999 250.333 63.024 250.333 129.667Z" fill="#1F0058"/>
<path d="M147.364 174.084C157.36 156.684 159.885 132.968 154.62 118.727C154.408 116.861 154.092 115.019 153.786 113.171C153.509 111.492 153.137 109.817 153.184 107.811C154.489 109.432 155.994 109.617 157.538 109.524C158.158 109.485 158.76 109.12 159.561 108.835C158.281 108.261 157.286 107.815 156.098 107.28C157.43 106.984 158.464 106.753 159.889 106.436C158.654 105.729 157.852 105.271 157.174 104.883C157.997 104.289 158.82 103.696 160.057 102.805C158.153 102.701 156.824 102.629 155.606 102.563C155.082 101.979 154.712 101.451 154.233 101.055C152.877 99.9266 151.384 99.0146 149.704 98.4346C148.414 99.7466 147.558 98.3492 146.665 97.8412C145.973 97.4479 145.189 97.6399 144.458 96.9866C143.644 96.2559 142.124 96.9172 141.174 97.8986C142.721 97.9212 143.629 98.7012 144.084 100.115C144.289 100.756 144.504 101.493 144.957 101.943C146.521 103.495 146.388 105.603 146.744 107.469C147.226 110.001 145.973 112.447 145.698 114.963C144.345 115.812 145.496 117.443 144.481 118.597C143.73 119.452 143.844 121.036 143.47 122.264C139.365 147.908 155.514 147.945 141.66 173.775C141.66 173.775 140.488 176.961 136.094 176.668C136.094 176.668 136.388 180.036 135.217 180.768C135.217 180.768 143.26 183.359 147.364 174.084Z" fill="white"/>
<path d="M108.521 98.2917C108.276 96.5264 101.901 103.584 101.901 103.584C101.901 103.584 83.0411 173.18 126.26 179.526L131.894 179.833C133.044 177.488 133.264 175.257 131.574 173.258C105.07 180.636 96.1771 135.87 108.521 98.2917Z" fill="white"/>
<path d="M108.521 98.2917C108.276 96.5264 101.901 103.584 101.901 103.584C101.901 103.584 83.0411 173.18 126.26 179.526L131.894 179.833C133.044 177.488 133.264 175.257 131.574 173.258C105.07 180.636 96.1771 135.87 108.521 98.2917Z" stroke="white" stroke-width="2.39067" stroke-miterlimit="10"/>
<path d="M162.871 156.277C163.821 158.987 164.009 161.779 161.703 164.845C164.739 164.707 166.405 162.741 167.466 159.967C168.122 160.567 168.293 161.681 167.974 163.311C169.486 162.654 170.507 160.789 171.25 158.239C172.667 159.57 173.417 162.091 173.775 165.311C177.305 164.381 177.809 160.682 176.294 155.138L181.258 161.454C183.227 160.786 183.357 159.361 181.311 157.039C185.227 158.603 188.235 160.706 189.935 163.586C193.062 160.425 193.381 156.786 190.19 152.55C195.347 155.65 199.553 157.054 201.447 154.335C201.733 153.462 199.433 150.961 196.371 147.981C198.923 149.223 201.394 149.79 203.813 149.929C206.222 145.082 203.226 143.61 198.121 143.458C200.906 142.219 204.037 141.701 207.57 142.027C206.551 137.586 202.207 136.079 196.275 135.975C208.518 136.406 215.035 132.615 216.191 124.871C213.487 126.181 210.218 126.553 206.446 126.086C215.51 122.517 222.979 117.615 222.443 106.013C216.303 112.37 211.607 116.049 208.995 115.855C224.619 100.702 225.895 92.8594 221.429 87.9434C210.553 128.553 161.094 109.145 159.219 145.022C161.843 148.507 159.477 154.067 159.477 154.067C160.203 155.287 160.199 157.13 159.359 159.686C160.978 159.353 162.033 158.177 162.418 156.009L162.871 156.277Z" fill="white"/>
<path d="M90.0524 152.617C88.8138 155.208 88.3244 157.965 90.2831 161.261C87.2804 160.795 85.8378 158.659 85.0831 155.787C84.3658 156.312 84.0764 157.4 84.2151 159.056C82.7844 158.24 81.9711 156.275 81.5098 153.659C79.9564 154.828 78.9378 157.253 78.2324 160.416C74.8231 159.107 74.7244 155.375 76.8311 150.029L71.2124 155.768C69.3271 154.891 69.3538 153.46 71.6378 151.373C67.5764 152.505 64.3564 154.268 62.3551 156.947C59.5884 153.465 59.6671 149.813 63.2991 145.948C57.8351 148.471 53.5031 149.409 51.9151 146.501C51.7258 145.601 54.2844 143.365 57.6498 140.735C54.9778 141.693 52.4618 141.989 50.0404 141.865C48.1724 136.784 51.3084 135.647 56.4018 136.049C53.7671 134.516 50.7111 133.661 47.1618 133.603C48.6578 129.297 53.1391 128.271 59.0484 128.812C46.8298 127.912 40.7618 123.436 40.4538 115.612C43.0004 117.207 46.2098 117.931 50.0111 117.876C41.3884 113.345 34.4924 107.663 36.2858 96.1853C41.6991 103.172 45.9684 107.339 48.5858 107.429C34.6991 90.6706 34.2818 82.736 39.2538 78.3333C45.6604 119.883 96.9324 105.956 94.9044 141.825C91.9178 145.007 93.6658 150.789 93.6658 150.789C92.8111 151.923 92.6151 153.755 93.1738 156.388C91.6004 155.88 90.6804 154.597 90.5311 152.4L90.0524 152.617Z" fill="white"/>
</svg>
